<svg width="32" height="32" viewBox="0 0 32 32" fill="none" xmlns="http://www.w3.org/2000/svg">
<path d="M30.2222 5.33333V26.6667C30.2222 28.6222 28.6222 30.2222 26.6667 30.2222H20.4444V20.4444H23.2889C23.7333 20.4444 24.0889 20.1333 24.1778 19.7333L24.7111 17.0667C24.8 16.5333 24.4 16 23.8222 16H20.4444V12.4444C20.4444 11.4667 21.2444 10.6667 22.2222 10.6667H24C24.4889 10.6667 24.8889 10.2667 24.8889 9.77777V7.1111C24.8889 6.62222 24.4889 6.22222 24 6.22222H21.3333C18.4 6.22222 16 8.62222 16 11.5555V16H13.3333C12.8444 16 12.4444 16.4 12.4444 16.8889V19.5555C12.4444 20.0444 12.8444 20.4444 13.3333 20.4444H16V30.2222H5.33333C3.37777 30.2222 1.77777 28.6222 1.77777 26.6667V5.33333C1.77777 3.37777 3.37777 1.77777 5.33333 1.77777H26.6667C28.6222 1.77777 30.2222 3.37777 30.2222 5.33333Z" fill="black"/>
</svg>
