<svg width="32" height="32" viewBox="0 0 32 32" fill="none" xmlns="http://www.w3.org/2000/svg">
<path d="M8.88888 4.44444C6.44444 4.44444 4.44444 6.44444 4.44444 8.88888V23.1111C4.44444 25.5555 6.44444 27.5555 8.88888 27.5555H23.1111C25.5555 27.5555 27.5555 25.5555 27.5555 23.1111V8.88888C27.5555 6.44444 25.5555 4.44444 23.1111 4.44444H8.88888ZM16 23.1111C15.0222 23.1111 14.0889 22.9333 13.2444 22.5333C12.4 22.1778 11.6444 21.6444 10.9778 21.0222C10.3111 20.3555 9.82222 19.6 9.46666 18.7555C9.1111 17.8667 8.88888 16.9333 8.88888 16C8.88888 15.0222 9.06666 14.0889 9.46666 13.2444C9.82222 12.4 10.3555 11.6444 10.9778 10.9778C11.6444 10.3111 12.4 9.82222 13.2444 9.46666C14.1333 9.1111 15.0667 8.88888 16 8.88888C16.9778 8.88888 17.9111 9.06666 18.7555 9.46666C19.6 9.82222 20.3555 10.3555 21.0222 10.9778C21.6889 11.6444 22.1778 12.4 22.5333 13.2444C22.8889 14.1333 23.1111 15.0667 23.1111 16C23.1111 16.9778 22.9333 17.9111 22.5333 18.7555C22.1778 19.6 21.6444 20.3555 21.0222 21.0222C20.3555 21.6889 19.6 22.1778 18.7555 22.5333C17.9111 22.9333 16.9778 23.1111 16 23.1111ZM16 11.5555C13.5555 11.5555 11.5555 13.5555 11.5555 16C11.5555 18.4444 13.5555 20.4444 16 20.4444C18.4444 20.4444 20.4444 18.4444 20.4444 16C20.4444 13.5555 18.4444 11.5555 16 11.5555ZM24 9.33333C23.2444 9.33333 22.6667 8.75555 22.6667 7.99999C22.6667 7.24444 23.2444 6.66666 24 6.66666C24.7555 6.66666 25.3333 7.24444 25.3333 7.99999C25.3333 8.75555 24.7555 9.33333 24 9.33333ZM23.1111 30.2222H8.88888C4.97777 30.2222 1.77777 27.0222 1.77777 23.1111V8.88888C1.77777 4.97777 4.97777 1.77777 8.88888 1.77777H23.1111C27.0222 1.77777 30.2222 4.97777 30.2222 8.88888V23.1111C30.2222 27.0222 27.0222 30.2222 23.1111 30.2222Z" fill="black"/>
</svg>
