<svg width="180" height="65" viewBox="0 0 180 65" fill="none" xmlns="http://www.w3.org/2000/svg">
<g clip-path="url(#clip0_1_2)">
<mask id="mask0_1_2" style="mask-type:luminance" maskUnits="userSpaceOnUse" x="0" y="0" width="181" height="65">
<path d="M180 0.705963H0.552368V65H180V0.705963Z" fill="white"/>
</mask>
<g mask="url(#mask0_1_2)">
<mask id="mask1_1_2" style="mask-type:luminance" maskUnits="userSpaceOnUse" x="0" y="0" width="180" height="65">
<path d="M179.867 0.742554H0.684631V64.9634H179.867V0.742554Z" fill="white"/>
</mask>
<g mask="url(#mask1_1_2)">
<mask id="mask2_1_2" style="mask-type:luminance" maskUnits="userSpaceOnUse" x="0" y="0" width="180" height="65">
<path d="M179.867 0.742554H0.684631V64.9634H179.867V0.742554Z" fill="white"/>
</mask>
<g mask="url(#mask2_1_2)">
<path d="M59.2214 6.10908C59.2214 4.9579 58.7538 4.02469 58.177 4.02469C57.6002 4.02469 57.1326 4.9579 57.1326 6.10908V59.5969C57.1326 60.7481 57.6002 61.6813 58.177 61.6813C58.7538 61.6813 59.2214 60.7481 59.2214 59.5969V6.10908Z" fill="#233565"/>
<mask id="mask3_1_2" style="mask-type:luminance" maskUnits="userSpaceOnUse" x="64" y="4" width="116" height="58">
<path d="M179.868 4.16809H64.6894V61.5378H179.868V4.16809Z" fill="white"/>
</mask>
<g mask="url(#mask3_1_2)">
<mask id="mask4_1_2" style="mask-type:luminance" maskUnits="userSpaceOnUse" x="64" y="4" width="116" height="58">
<path d="M179.868 4.16809H64.6894V61.5378H179.868V4.16809Z" fill="white"/>
</mask>
<g mask="url(#mask4_1_2)">
<mask id="mask5_1_2" style="mask-type:luminance" maskUnits="userSpaceOnUse" x="64" y="4" width="116" height="58">
<path d="M179.868 4.16809H64.6894V61.5378H179.868V4.16809Z" fill="white"/>
</mask>
<g mask="url(#mask5_1_2)">
<mask id="mask6_1_2" style="mask-type:luminance" maskUnits="userSpaceOnUse" x="64" y="4" width="116" height="58">
<path d="M179.868 4.16809H64.6894V61.5378H179.868V4.16809Z" fill="white"/>
</mask>
<g mask="url(#mask6_1_2)">
<path d="M74.4667 14.6152V16.8375H67.0239V25.9478H64.6894V5.31924H75.6734V7.55908H67.0239V14.6152H74.4667ZM83.3306 26.2321C81.5443 26.2321 80.0913 25.5492 78.971 24.1838C77.85 22.8184 77.2898 20.9923 77.2898 18.7061V18.2244C77.2898 16.7041 77.5404 15.348 78.0429 14.1568C78.5419 12.9614 79.2403 12.0254 80.1381 11.3482C81.0324 10.6752 82.0037 10.3385 83.0513 10.3385C84.7634 10.3385 86.0954 10.9943 87.0465 12.3056C87.9977 13.6171 88.4736 15.4971 88.4736 17.9459V19.0368H79.5441C79.578 20.5455 79.9567 21.7658 80.6817 22.6983C81.4097 23.6267 82.3341 24.0909 83.4552 24.0909C84.2501 24.0909 84.9233 23.9035 85.4755 23.5281C86.0277 23.1491 86.5116 22.6478 86.927 22.0252L88.2986 23.2728C87.1949 25.2457 85.5389 26.2321 83.3306 26.2321ZM83.0513 12.4914C82.1433 12.4914 81.3801 12.8761 80.7617 13.6461C80.1468 14.4161 79.7652 15.4931 79.619 16.8782H86.2185V16.6809C86.1523 15.3504 85.8427 14.3192 85.2905 13.5881C84.7389 12.8569 83.9923 12.4914 83.0513 12.4914ZM99.617 10.6171L102.745 22.3327L105.278 10.6171H107.528L103.692 25.9478H101.867L98.6645 14.3308L95.5469 25.9478H93.7209L89.8949 10.6171H92.1398L94.7333 22.0948L97.8012 10.6171H99.617ZM121.571 16.7564C119.565 16.0832 118.107 15.2592 117.196 14.2844C116.281 13.3055 115.824 12.0985 115.824 10.6635C115.824 9.03878 116.382 7.69428 117.5 6.63065C118.614 5.56701 120.065 5.03491 121.854 5.03491C123.072 5.03491 124.158 5.30938 125.112 5.8589C126.066 6.40841 126.804 7.1645 127.327 8.12777C127.849 9.09101 128.11 10.143 128.11 11.2844H125.76C125.76 10.0385 125.42 9.06021 124.738 8.34823C124.056 7.63278 123.095 7.27475 121.854 7.27475C120.701 7.27475 119.801 7.57069 119.156 8.1626C118.511 8.75038 118.188 9.56853 118.188 10.6171C118.188 11.4602 118.494 12.1722 119.106 12.7524C119.718 13.3327 120.761 13.8626 122.234 14.3424C123.71 14.8258 124.864 15.3579 125.695 15.9381C126.527 16.5184 127.143 17.1956 127.546 17.9691C127.948 18.7467 128.15 19.6594 128.15 20.708C128.15 22.3791 127.59 23.7178 126.469 24.7234C125.348 25.729 123.85 26.2321 121.974 26.2321C120.757 26.2321 119.62 25.9594 118.562 25.4139C117.508 24.8725 116.695 24.1298 116.123 23.1857C115.551 22.2416 115.265 21.1704 115.265 19.971H117.615C117.615 21.2168 118.01 22.201 118.801 22.9246C119.593 23.6481 120.651 24.0097 121.974 24.0097C123.208 24.0097 124.154 23.7155 124.813 23.1277C125.471 22.5434 125.801 21.7467 125.801 20.737C125.801 19.7232 125.495 18.9422 124.883 18.3927C124.274 17.8397 123.17 17.2942 121.571 16.7564ZM131.597 6.90918H133.847V10.6171H136.31V12.6481H133.847V22.1528C133.847 22.7638 133.956 23.2246 134.176 23.5339C134.395 23.8397 134.769 23.9923 135.298 23.9923C135.557 23.9923 135.915 23.936 136.37 23.824V25.9478C135.775 26.1375 135.198 26.2321 134.639 26.2321C133.632 26.2321 132.872 25.8781 132.36 25.1702C131.851 24.4623 131.597 23.4567 131.597 22.1528V12.6481H129.197V10.6171H131.597V6.90918ZM144.406 26.2321C142.62 26.2321 141.168 25.5492 140.046 24.1838C138.925 22.8184 138.365 20.9923 138.365 18.7061V18.2244C138.365 16.7041 138.615 15.348 139.114 14.1568C139.612 12.9614 140.311 12.0254 141.209 11.3482C142.107 10.6752 143.079 10.3385 144.127 10.3385C145.84 10.3385 147.172 10.9943 148.123 12.3056C149.07 13.6171 149.544 15.4971 149.544 17.9459V19.0368H140.62C140.653 20.5455 141.033 21.7658 141.758 22.6983C142.486 23.6267 143.409 24.0909 144.526 24.0909C145.324 24.0909 145.999 23.9035 146.551 23.5281C147.103 23.1491 147.586 22.6478 147.998 22.0252L149.375 23.2728C148.271 25.2457 146.614 26.2321 144.406 26.2321ZM144.127 12.4914C143.216 12.4914 142.453 12.8761 141.837 13.6461C141.219 14.4161 140.836 15.4931 140.69 16.8782H147.295V16.6809C147.228 15.3504 146.919 14.3192 146.367 13.5881C145.814 12.8569 145.068 12.4914 144.127 12.4914ZM163.282 18.2128V18.4507C163.282 20.7875 162.823 22.6675 161.905 24.0909C160.987 25.5184 159.745 26.2321 158.179 26.2321C156.579 26.2321 155.321 25.6419 154.403 24.4623V31.8433H152.153V10.6171H154.208L154.318 12.3173C155.236 10.9983 156.511 10.3385 158.144 10.3385C159.727 10.3385 160.979 11.0308 161.9 12.4159C162.821 13.8045 163.282 15.7368 163.282 18.2128ZM161.032 18.1548C161.032 16.4256 160.714 15.062 160.079 14.0639C159.448 13.0617 158.579 12.561 157.475 12.561C156.113 12.561 155.088 13.2649 154.403 14.6732V21.9961C155.078 23.3929 156.11 24.0909 157.501 24.0909C158.578 24.0909 159.436 23.5937 160.075 22.5996C160.713 21.6016 161.032 20.1201 161.032 18.1548ZM173.817 21.8801C173.817 21.1722 173.588 20.6226 173.128 20.2322C172.67 19.8416 171.87 19.5028 170.729 19.2167C169.588 18.9341 168.684 18.5958 168.016 18.2012C167.344 17.8026 166.848 17.3291 166.529 16.7795C166.206 16.2341 166.045 15.5824 166.045 14.824C166.045 13.5707 166.503 12.5088 167.417 11.6384C168.332 10.772 169.499 10.3385 170.919 10.3385C172.412 10.3385 173.624 10.7871 174.555 11.6848C175.483 12.5784 175.947 13.7256 175.947 15.1258H173.682C173.682 14.4062 173.421 13.7871 172.899 13.2689C172.374 12.7507 171.713 12.4914 170.919 12.4914C170.097 12.4914 169.456 12.6985 168.993 13.1123C168.531 13.53 168.3 14.0737 168.3 14.7428C168.3 15.3736 168.515 15.8494 168.944 16.1703C169.376 16.4912 170.154 16.7987 171.278 17.0929C172.402 17.3871 173.313 17.737 174.012 18.1432C174.71 18.5494 175.227 19.0368 175.563 19.6055C175.902 20.1782 176.072 20.8762 176.072 21.7002C176.072 23.0696 175.599 24.1664 174.655 24.9903C173.714 25.8184 172.493 26.2321 170.993 26.2321C169.936 26.2321 169.002 26.0157 168.191 25.5822C167.378 25.1452 166.743 24.5377 166.285 23.7602C165.826 22.9786 165.596 22.1354 165.596 21.2302H167.851C167.891 22.1081 168.193 22.8045 168.759 23.3192C169.321 23.8339 170.066 24.0909 170.993 24.0909C171.845 24.0909 172.529 23.8896 173.044 23.4874C173.559 23.0888 173.817 22.5532 173.817 21.8801Z" fill="#233565"/>
<path d="M69.5929 54.6363H64.6894V34.0077H69.6926C71.2355 34.0077 72.599 34.404 73.7827 35.1973C74.97 35.9905 75.8865 37.1197 76.5317 38.586C77.1768 40.0483 77.5029 41.7294 77.5094 43.6285V44.9458C77.5094 46.8914 77.1861 48.5957 76.5417 50.058C75.8966 51.5243 74.975 52.6477 73.7777 53.4293C72.581 54.2144 71.1856 54.6171 69.5929 54.6363ZM69.7525 36.2476H67.0239V52.4138H69.4881C71.2904 52.4138 72.6919 51.7622 73.6934 50.4583C74.6971 49.1545 75.1997 47.2976 75.1997 44.8878V43.6866C75.1997 41.3423 74.7259 39.522 73.7777 38.2263C72.8337 36.9265 71.4919 36.2667 69.7525 36.2476ZM83.1362 39.3056V54.6363H80.8862V39.3056H83.1362ZM80.7019 35.2437C80.7019 34.8183 80.8128 34.4586 81.036 34.1644C81.2585 33.8702 81.5897 33.7234 82.0289 33.7234C82.4673 33.7234 82.8 33.8702 83.0261 34.1644C83.2557 34.4586 83.3702 34.8183 83.3702 35.2437C83.3702 35.6691 83.2557 36.023 83.0261 36.3056C82.8 36.5882 82.4673 36.7292 82.0289 36.7292C81.5897 36.7292 81.2585 36.5882 81.036 36.3056C80.8128 36.023 80.7019 35.6691 80.7019 35.2437ZM97.2374 54.6363H94.878C94.7484 54.3345 94.6425 53.7966 94.559 53.0231C93.5114 54.2881 92.2608 54.9206 90.8078 54.9206C89.5111 54.9206 88.4469 54.4929 87.6153 53.6382C86.7809 52.7835 86.3633 51.7001 86.3633 50.3887C86.3633 48.7912 86.8853 47.5512 87.9293 46.6691C88.9733 45.7831 90.4421 45.3404 92.3342 45.3404H94.5238V44.1392C94.5238 43.2224 94.2883 42.493 93.816 41.9516C93.3465 41.4062 92.6532 41.1334 91.7359 41.1334C90.9309 41.1334 90.2577 41.3696 89.7156 41.8413C89.1698 42.3131 88.8969 42.8858 88.8969 43.5589H86.6325C86.6325 42.793 86.8658 42.0543 87.3309 41.3423C87.7997 40.6268 88.4333 40.0617 89.2317 39.6479C90.0331 39.2342 90.9122 39.027 91.8705 39.027C93.3869 39.027 94.5756 39.4681 95.4367 40.3501C96.2985 41.232 96.7449 42.4489 96.7788 44V51.0502C96.7788 52.4585 96.9321 53.5784 97.2374 54.4099V54.6363ZM91.1369 52.6402C91.8453 52.6402 92.5149 52.4271 93.1471 52.0018C93.7821 51.5765 94.2415 51.0229 94.5238 50.3423V47.1972H92.7583C89.9985 47.1972 88.6183 48.1372 88.6183 50.0173C88.6183 50.8413 88.8537 51.4836 89.3261 51.9438C89.7955 52.408 90.3989 52.6402 91.1369 52.6402ZM99.7718 46.8432C99.7718 44.4566 100.247 42.5568 101.198 41.145C102.149 39.7333 103.408 39.027 104.975 39.027C106.581 39.027 107.834 39.6868 108.736 41.0058L108.845 39.3056H110.905V54.2707C110.905 56.2511 110.4 57.8144 109.389 58.9592C108.378 60.1006 107.019 60.6711 105.314 60.6711C104.363 60.6711 103.433 60.4349 102.525 59.9631C101.617 59.4913 100.924 58.8432 100.445 58.0192L101.612 56.4525C102.576 57.8376 103.757 58.5299 105.154 58.5299C106.251 58.5299 107.106 58.1718 107.718 57.4564C108.333 56.7368 108.641 55.7254 108.641 54.4215V53.1044C107.739 54.3154 106.51 54.9206 104.949 54.9206C103.406 54.9206 102.157 54.197 101.203 52.7504C100.249 51.3073 99.7718 49.3384 99.7718 46.8432ZM102.036 47.1392C102.036 48.8684 102.341 50.2262 102.949 51.2126C103.561 52.2032 104.414 52.6981 105.508 52.6981C106.928 52.6981 107.973 51.9455 108.641 50.4409V43.4429C107.949 41.9806 106.914 41.2495 105.533 41.2495C104.436 41.2495 103.579 41.7445 102.964 42.7349C102.346 43.729 102.036 45.197 102.036 47.1392ZM114.302 39.3056H116.433L116.508 41.232C117.515 39.7622 118.83 39.027 120.453 39.027C123.237 39.027 124.641 40.8531 124.668 44.5048V54.6363H122.413V44.4932C122.404 43.3866 122.185 42.5707 121.76 42.0444C121.334 41.5146 120.671 41.2495 119.769 41.2495C119.038 41.2495 118.396 41.4758 117.844 41.9284C117.292 42.381 116.862 42.9769 116.557 43.7156V54.6363H114.302V39.3056ZM127.467 47.0174V46.8316C127.467 45.3305 127.721 43.9808 128.23 42.7814C128.735 41.5785 129.44 40.6518 130.344 40.0019C131.252 39.352 132.286 39.027 133.447 39.027C135.24 39.027 136.691 39.7483 137.802 41.1914C138.91 42.6381 139.463 44.5611 139.463 46.9593V47.1392C139.463 48.6322 139.217 49.9726 138.725 51.1604C138.232 52.3442 137.531 53.2668 136.62 53.9283C135.706 54.5899 134.656 54.9206 133.472 54.9206C131.687 54.9206 130.238 54.197 129.128 52.7504C128.02 51.3073 127.467 49.3964 127.467 47.0174ZM129.731 47.1392C129.731 48.8411 130.07 50.2071 130.748 51.2359C131.427 52.2647 132.335 52.7794 133.472 52.7794C134.616 52.7794 135.526 52.2571 136.201 51.2126C136.873 50.1723 137.208 48.7117 137.208 46.8316C137.208 45.1488 136.866 43.7852 136.181 42.7407C135.496 41.7004 134.585 41.1798 133.447 41.1798C132.333 41.1798 131.435 41.6946 130.753 42.7233C130.072 43.7522 129.731 45.2243 129.731 47.1392ZM149.958 50.5686C149.958 49.8606 149.729 49.3112 149.27 48.9206C148.811 48.5301 148.011 48.1912 146.871 47.9051C145.729 47.6226 144.825 47.2842 144.157 46.8897C143.489 46.491 142.993 46.0175 142.67 45.468C142.351 44.9226 142.191 44.271 142.191 43.5125C142.191 42.2591 142.647 41.1972 143.559 40.3268C144.473 39.4605 145.64 39.027 147.06 39.027C148.553 39.027 149.765 39.4756 150.697 40.3733C151.628 41.2669 152.094 42.414 152.094 43.8142H149.823C149.823 43.0947 149.563 42.4756 149.041 41.9574C148.518 41.4392 147.858 41.1798 147.06 41.1798C146.242 41.1798 145.602 41.387 145.14 41.8007C144.674 42.2185 144.441 42.7623 144.441 43.4313C144.441 44.062 144.657 44.5378 145.09 44.8587C145.518 45.1796 146.295 45.4871 147.419 45.7814C148.543 46.0756 149.455 46.4255 150.153 46.8316C150.851 47.2378 151.37 47.7252 151.709 48.2939C152.045 48.8666 152.213 49.5647 152.213 50.3887C152.213 51.7581 151.743 52.8548 150.801 53.6788C149.86 54.5068 148.638 54.9206 147.135 54.9206C146.081 54.9206 145.146 54.7041 144.331 54.2707C143.52 53.8338 142.885 53.2262 142.426 52.4486C141.967 51.667 141.738 50.8239 141.738 49.9187H143.992C144.032 50.7966 144.335 51.4929 144.9 52.0077C145.465 52.5223 146.21 52.7794 147.135 52.7794C147.987 52.7794 148.67 52.578 149.185 52.1759C149.7 51.7773 149.958 51.2417 149.958 50.5686ZM155.949 35.5976H158.203V39.3056H160.663V41.3365H158.203V50.8413C158.203 51.4523 158.314 51.913 158.533 52.2223C158.753 52.5281 159.126 52.6807 159.656 52.6807C159.915 52.6807 160.273 52.6245 160.728 52.5125V54.6363C160.133 54.826 159.556 54.9206 158.997 54.9206C157.99 54.9206 157.229 54.5666 156.717 53.8587C156.205 53.1507 155.949 52.1452 155.949 50.8413V41.3365H153.555V39.3056H155.949V35.5976ZM165.741 39.3056V54.6363H163.491V39.3056H165.741ZM163.307 35.2437C163.307 34.8183 163.418 34.4586 163.641 34.1644C163.864 33.8702 164.195 33.7234 164.634 33.7234C165.072 33.7234 165.406 33.8702 165.631 34.1644C165.861 34.4586 165.975 34.8183 165.975 35.2437C165.975 35.6691 165.861 36.023 165.631 36.3056C165.406 36.5882 165.072 36.7292 164.634 36.7292C164.195 36.7292 163.864 36.5882 163.641 36.3056C163.418 36.023 163.307 35.6691 163.307 35.2437ZM174.635 52.7794C175.437 52.7794 176.138 52.4968 176.74 51.9322C177.342 51.3635 177.674 50.6539 177.738 49.8026H179.868C179.828 50.6846 179.569 51.5219 179.089 52.3152C178.61 53.1084 177.972 53.7409 177.174 54.2126C176.373 54.6844 175.527 54.9206 174.635 54.9206C172.84 54.9206 171.411 54.2242 170.35 52.8316C169.293 51.439 168.764 49.5339 168.764 47.1159V46.6749C168.764 45.182 168.998 43.8549 169.467 42.6943C169.939 41.5338 170.616 40.6327 171.498 39.9903C172.379 39.3479 173.419 39.027 174.62 39.027C176.1 39.027 177.329 39.5417 178.307 40.5705C179.284 41.5994 179.804 42.9363 179.868 44.5802H177.738C177.674 43.5862 177.352 42.7698 176.77 42.1314C176.191 41.4972 175.475 41.1798 174.62 41.1798C173.476 41.1798 172.59 41.6574 171.961 42.6131C171.333 43.5723 171.019 44.9591 171.019 46.7736V47.2668C171.019 49.0349 171.331 50.3962 171.956 51.3519C172.578 52.3036 173.471 52.7794 174.635 52.7794Z" fill="#233565"/>
</g>
</g>
</g>
</g>
<mask id="mask7_1_2" style="mask-type:luminance" maskUnits="userSpaceOnUse" x="0" y="0" width="52" height="65">
<path d="M51.6645 0.742554H0.684631V64.9634H51.6645V0.742554Z" fill="white"/>
</mask>
<g mask="url(#mask7_1_2)">
<mask id="mask8_1_2" style="mask-type:luminance" maskUnits="userSpaceOnUse" x="0" y="0" width="52" height="65">
<path d="M51.6645 0.742554H0.684631V64.9634H51.6645V0.742554Z" fill="white"/>
</mask>
<g mask="url(#mask8_1_2)">
<path d="M44.2895 0.742554L36.9145 15.218H42.4626V30.4053H21.007V49.3186H0.684631V64.9633H4.33953V53.569H24.6608V34.6556H46.1164V15.218H51.6645L44.2895 0.742554Z" fill="#8BD8BC"/>
</g>
</g>
</g>
</g>
</g>
</g>
<defs>
<clipPath id="clip0_1_2">
<rect width="180" height="65" fill="white"/>
</clipPath>
</defs>
</svg>
