<svg width="32" height="32" viewBox="0 0 32 32" fill="none" xmlns="http://www.w3.org/2000/svg">
<path d="M3.77777 5.51112C1.33333 10.6667 5.55555 13.2445 5.55555 13.2445C4.17777 13.3778 2.93333 12.5778 2.93333 12.5778C3.28888 17.5111 7.59999 18.2667 7.59999 18.2667C6.39999 18.6667 4.97777 18.3556 4.97777 18.3556C6.26666 22.4 10.4 22.3556 10.4 22.3556C6.62222 25.4222 1.77777 24.8 1.77777 24.8C18.4 34.1778 28.4444 17.3333 27.2889 10.1778C28.6667 9.37779 30.2222 7.20001 30.2222 7.20001C28.2222 8.04445 26.8889 8.13334 26.8889 8.13334C28.8444 7.02223 29.4667 4.93334 29.4667 4.93334C28.2667 5.73334 25.8222 6.40001 25.8222 6.40001C24.7555 5.24445 23.2444 4.53334 21.5555 4.53334C17.8667 4.4889 15.0667 8.04445 15.9111 11.6C15.8667 11.5111 9.33333 12 3.77777 5.51112Z" fill="black"/>
</svg>
